# xmcd
#
# Track frame offsets:
# 150
# 11942
# 22106
# 35787
# 47631
# 57239
# 66386
# 78104
# 91250
# 103581
#
# Disc length: 1568 seconds
#
#
# Revision: 0
# Processed by: cddbd v1.5.1PL2 Copyright (c) Steve Scherf et al.
# Submitted via: FreeRIP 2.943 
#
DISCID=82061e0a
DTITLE=Willie Nelson - Willie Nelson (The Album)
DYEAR=2004
DGENRE=Country
TTITLE0=Night Life
TTITLE1=Healing Hands of Time
TTITLE2=Undo the Wrong
TTITLE3=Happiness Lives Next Door
TTITLE4=Let's Pretend
TTITLE5=Right From Wrong
TTITLE6=What A Way To Live
TTITLE7=You'll Always Have Someone
TTITLE8=Shelter Of My Arms
TTITLE9=Rainy Day Blues
EXTD=
EXTT0=
EXTT1=
EXTT2=
EXTT3=
EXTT4=
EXTT5=
EXTT6=
EXTT7=
EXTT8=
EXTT9=
PLAYORDER=
